<?xml version="1.0" standalone="no"?>
<!DOCTYPE svg PUBLIC "-//W3C//DTD SVG 1.1//EN" "http://www.w3.org/Graphics/SVG/1.1/DTD/svg11.dtd" >
<svg xmlns="http://www.w3.org/2000/svg" xmlns:xlink="http://www.w3.org/1999/xlink" version="1.1">
<metadata>
Created by FontForge 20160407 at Thu May 12 16:26:13 2016
 By Jimmy Wärting
Copyright 1987, 1991 , 2002Adobe Systems Incorporated. All Rights Reserved. 
</metadata>
<defs>
<font id="NewsGothicStd-Bold" horiz-adv-x="622" >
  <font-face 
    font-family="News Gothic Std"
    font-weight="700"
    font-stretch="normal"
    units-per-em="1000"
    panose-1="2 11 7 4 3 5 3 2 2 4"
    ascent="778"
    descent="-222"
    x-height="560"
    cap-height="778"
    bbox="-155 -250 1220 1040"
    underline-thickness="50"
    underline-position="-100"
    stemh="132"
    stemv="148"
    unicode-range="U+0020-FB02"
  />
<missing-glyph horiz-adv-x="500" 
d="M0 0v700h500v-700h-500zM250 395l170 255h-340zM280 350l170 -255v510zM80 50h340l-170 255zM50 605v-510l170 255z" />
    <glyph glyph-name="fi" unicode="fi" horiz-adv-x="587" 
d="M533 560v-560h-148v437h-163v-437h-148v437h-74v123h74v59c0 71 56 159 214 159h152v-132c-191 0 -219 12 -218 -66v-20h311z" />
    <glyph glyph-name="fl" unicode="fl" horiz-adv-x="587" 
d="M310 560v-123h-88v-437h-148v437h-74v123h74v59c0 71 56 159 214 159h245v-778h-148v646c-136 0 -164 12 -163 -66v-20h88z" />
    <glyph glyph-name=".notdef" horiz-adv-x="500" 
d="M0 0v700h500v-700h-500zM250 395l170 255h-340zM280 350l170 -255v510zM80 50h340l-170 255zM50 605v-510l170 255z" />
    <glyph glyph-name="space" unicode=" " horiz-adv-x="311" 
 />
    <glyph glyph-name="exclam" unicode="!" horiz-adv-x="247" 
d="M62 237l-23 541h169l-23 -541h-123zM197 148v-148h-148v148h148z" />
    <glyph glyph-name="quotedbl" unicode="&#x22;" horiz-adv-x="474" 
d="M50 778h138v-130l-42 -129h-54l-42 129v130zM286 778h138v-130l-42 -129h-54l-42 129v130z" />
    <glyph glyph-name="numbersign" unicode="#" 
d="M243 778h106l-41 -218h100l42 218h106l-42 -218h72v-111h-91l-23 -120h86v-111h-109l-42 -218h-106l42 218h-101l-42 -218h-106l42 218h-100v111h121l25 120h-105v111h125zM288 449l-25 -120h102l25 120h-102z" />
    <glyph glyph-name="dollar" unicode="$" 
d="M569 647l-120 -71c-30 45 -68 75 -124 75c-43 0 -99 -22 -99 -72c0 -121 359 -121 359 -356c1 -133 -91 -207 -205 -232v-92h-96v92c-107 10 -194 69 -247 163l122 73c35 -61 88 -100 161 -100c51 0 118 20 118 83c0 115 -359 120 -359 355c0 122 91 205 205 222v92h96
v-92c80 -22 152 -65 189 -140z" />
    <glyph glyph-name="percent" unicode="%" horiz-adv-x="852" 
d="M656 389c131 0 167 -105 167 -207c0 -99 -46 -194 -167 -194s-167 95 -167 194c0 102 36 207 167 207zM656 299c-53 0 -52 -64 -52 -117c0 -47 4 -104 52 -104s52 57 52 104c0 53 1 117 -52 117zM196 790c131 0 167 -105 167 -207c0 -99 -46 -194 -167 -194
s-167 95 -167 194c0 102 36 207 167 207zM196 700c-53 0 -52 -64 -52 -117c0 -47 4 -104 52 -104s52 57 52 104c0 53 1 117 -52 117zM576 778h94l-394 -778h-94z" />
    <glyph glyph-name="ampersand" unicode="&#x26;" horiz-adv-x="713" 
d="M313 111c31 0 53 10 78 27c-61 56 -117 112 -153 168c-30 -21 -46 -46 -46 -84c0 -65 59 -111 121 -111zM160 403l17 12c-31 51 -54 106 -54 166c0 109 68 209 194 209c98 0 190 -80 190 -183c0 -100 -62 -174 -142 -227c37 -56 75 -101 117 -137c29 43 44 86 55 129
l125 -28c-14 -63 -39 -122 -76 -176c39 -23 79 -31 120 -34l-8 -138c-72 -2 -141 23 -202 61c-59 -49 -126 -69 -202 -69c-123 0 -255 78 -255 213c0 91 50 152 121 202zM294 480c54 33 88 59 88 121c0 35 -22 72 -61 72c-41 0 -66 -37 -66 -75c0 -48 17 -76 39 -118z" />
    <glyph glyph-name="quoteright" unicode="&#x2019;" horiz-adv-x="224" 
d="M186 778v-142l-85 -164l-61 26l49 132h-51v148h148z" />
    <glyph glyph-name="parenleft" unicode="(" horiz-adv-x="329" 
d="M163 790l107 -35c-40 -129 -88 -265 -88 -462s48 -333 88 -462l-107 -35c-66 154 -104 330 -104 497s38 343 104 497z" />
    <glyph glyph-name="parenright" unicode=")" horiz-adv-x="329" 
d="M59 755l107 35c66 -154 104 -330 104 -497s-38 -343 -104 -497l-107 35c40 129 88 265 88 462s-48 333 -88 462z" />
    <glyph glyph-name="asterisk" unicode="*" 
d="M362 778l-9 -125l116 47l32 -97l-122 -30l81 -95l-83 -61l-66 107l-66 -107l-83 61l81 95l-122 30l32 97l116 -47l-9 125h102z" />
    <glyph glyph-name="plus" unicode="+" horiz-adv-x="584" 
d="M235 493h115v-192h184v-109h-184v-192h-115v192h-185v109h185v192z" />
    <glyph glyph-name="comma" unicode="," horiz-adv-x="311" 
d="M230 148v-142l-85 -164l-61 26l49 132h-51v148h148z" />
    <glyph glyph-name="hyphen" unicode="-" horiz-adv-x="341" 
d="M39 358h263v-124h-263v124z" />
    <glyph glyph-name="period" unicode="." horiz-adv-x="311" 
d="M230 148v-148h-148v148h148z" />
    <glyph glyph-name="slash" unicode="/" horiz-adv-x="535" 
d="M478 778h109l-530 -969h-109z" />
    <glyph glyph-name="zero" unicode="0" 
d="M311 790c176 0 289 -135 289 -408c0 -287 -143 -394 -289 -394s-289 107 -289 394c0 273 113 408 289 408zM311 663c-134 0 -136 -186 -136 -281c0 -94 6 -267 136 -267s136 173 136 267c0 95 -2 281 -136 281z" />
    <glyph glyph-name="one" unicode="1" 
d="M389 778v-655h120v-123h-396v123h120v510h-120v85l164 60h112z" />
    <glyph glyph-name="two" unicode="2" 
d="M568 132v-132h-513v165c164 203 355 270 355 405c0 54 -34 97 -90 97c-81 0 -107 -64 -118 -133l-147 26c5 149 117 230 260 230c176 0 255 -105 255 -227c0 -203 -204 -243 -357 -431h355z" />
    <glyph glyph-name="three" unicode="3" 
d="M213 350v113c73 -2 201 1 201 102c0 56 -37 102 -93 102c-60 0 -97 -44 -117 -97l-133 55c47 104 138 165 253 165c119 0 243 -78 243 -211c0 -86 -46 -130 -118 -166c79 -31 132 -94 132 -182c0 -152 -125 -243 -265 -243c-129 0 -249 79 -274 210l144 30
c20 -69 58 -117 135 -117c61 0 107 49 107 111c0 111 -130 131 -215 128z" />
    <glyph glyph-name="four" unicode="4" 
d="M493 778v-474h97v-123h-97v-181h-156v181h-305v113l279 484h182zM337 304v277h-2l-151 -277h153z" />
    <glyph glyph-name="five" unicode="5" 
d="M507 778v-132h-312v-162c44 39 92 58 151 58c146 0 237 -130 237 -266c0 -151 -114 -288 -283 -288c-107 0 -218 62 -260 164l138 55c19 -52 58 -96 118 -96c83 0 127 72 127 148s-38 151 -123 151c-49 0 -92 -31 -105 -78l-135 32l12 414h435z" />
    <glyph glyph-name="six" unicode="6" 
d="M574 654l-129 -67c-25 44 -51 71 -105 71c-95 0 -137 -110 -135 -190c46 26 90 45 144 45c96 0 235 -73 235 -249c0 -189 -154 -276 -257 -276c-146 0 -289 107 -289 394c0 278 137 408 300 408c96 0 186 -57 236 -136zM200 322c-2 -76 19 -202 116 -202
c79 0 115 63 115 136c0 62 -35 125 -104 125c-52 0 -90 -25 -127 -59z" />
    <glyph glyph-name="seven" unicode="7" 
d="M572 778v-85l-305 -693h-174l295 646h-321v132h505z" />
    <glyph glyph-name="eight" unicode="8" 
d="M322 470c46 24 86 54 86 111c0 43 -42 81 -100 81c-45 0 -97 -29 -97 -78c0 -61 62 -94 111 -114zM307 346c-58 -24 -115 -68 -115 -137c0 -53 53 -93 115 -93c58 0 123 32 123 99c0 70 -64 111 -123 131zM451 409c67 -45 132 -105 132 -192s-71 -229 -276 -229
c-182 0 -268 117 -268 221c0 88 59 163 136 200c-65 33 -113 87 -113 163c0 133 121 218 245 218c119 0 250 -79 250 -210c0 -78 -48 -128 -106 -171z" />
    <glyph glyph-name="nine" unicode="9" 
d="M48 124l129 67c25 -44 51 -71 105 -71c95 0 137 110 135 190c-46 -26 -90 -45 -144 -45c-96 0 -235 73 -235 249c0 189 154 276 257 276c146 0 289 -107 289 -394c0 -278 -137 -408 -300 -408c-96 0 -186 57 -236 136zM422 456c2 76 -19 202 -116 202
c-79 0 -115 -63 -115 -136c0 -62 35 -125 104 -125c52 0 90 25 127 59z" />
    <glyph glyph-name="colon" unicode=":" horiz-adv-x="311" 
d="M230 148v-148h-148v148h148zM230 560v-148h-148v148h148z" />
    <glyph glyph-name="semicolon" unicode=";" horiz-adv-x="311" 
d="M230 148v-142l-85 -164l-61 26l49 132h-51v148h148zM230 560v-148h-148v148h148z" />
    <glyph glyph-name="less" unicode="&#x3c;" horiz-adv-x="584" 
d="M505 17l-425 167v124l425 170v-108l-306 -123l306 -122v-108z" />
    <glyph glyph-name="equal" unicode="=" horiz-adv-x="584" 
d="M50 422h484v-109h-484v109zM50 180h484v-109h-484v109z" />
    <glyph glyph-name="greater" unicode="&#x3e;" horiz-adv-x="584" 
d="M80 17v108l306 122l-306 123v108l425 -170v-124z" />
    <glyph glyph-name="question" unicode="?" horiz-adv-x="447" 
d="M136 590l-113 70c42 80 111 130 203 130c110 0 198 -56 198 -175c0 -186 -187 -178 -175 -378h-134v33c0 172 175 234 175 338c0 31 -24 59 -56 59c-47 0 -81 -36 -98 -77zM255 148v-148h-148v148h148z" />
    <glyph glyph-name="at" unicode="@" horiz-adv-x="860" 
d="M322 353c0 -57 14 -95 63 -95c46 0 117 97 117 175c0 27 -12 82 -61 82c-73 0 -119 -75 -119 -162zM534 540l14 44h102l-72 -274c-5 -21 3 -52 40 -52c78 0 125 50 125 131c0 192 -135 313 -313 313c-169 0 -313 -121 -313 -313s144 -313 313 -313c92 0 150 14 191 36
l36 -84c-44 -20 -131 -40 -227 -40c-234 0 -401 179 -401 401s167 401 401 401c233 0 401 -179 401 -401c0 -135 -100 -219 -211 -219c-96 0 -114 40 -128 65c-42 -50 -75 -65 -125 -65c-103 0 -160 79 -160 160c0 168 116 273 240 273c55 0 75 -34 87 -63z" />
    <glyph glyph-name="A" unicode="A" horiz-adv-x="634" 
d="M420 778l222 -778h-159l-51 195h-230l-51 -195h-159l218 778h210zM401 318l-82 326h-4l-82 -326h168z" />
    <glyph glyph-name="B" unicode="B" horiz-adv-x="647" 
d="M210 123h101c47 0 138 -6 138 112c0 106 -88 120 -239 109v-221zM358 0h-304v778h224c252 0 316 -88 316 -214c0 -73 -35 -126 -98 -161c71 -34 113 -101 113 -179c0 -134 -109 -224 -251 -224zM210 655v-193c115 0 224 -13 224 94c0 111 -114 99 -224 99z" />
    <glyph glyph-name="C" unicode="C" horiz-adv-x="692" 
d="M505 264l148 -19c-24 -160 -131 -257 -293 -257c-222 0 -321 205 -321 401s99 401 321 401c160 0 267 -92 293 -257l-148 -20c-15 81 -51 154 -145 154c-134 0 -161 -178 -161 -278s27 -278 161 -278c93 0 130 73 145 153z" />
    <glyph glyph-name="D" unicode="D" horiz-adv-x="684" 
d="M54 778h190c296 0 401 -168 401 -389c0 -219 -115 -389 -347 -389h-244v778zM210 132h76c124 0 199 78 199 275c0 163 -70 239 -216 239h-59v-514z" />
    <glyph glyph-name="E" unicode="E" horiz-adv-x="600" 
d="M538 778v-132h-328v-186h272v-132h-272v-196h347v-132h-503v778h484z" />
    <glyph glyph-name="F" unicode="F" horiz-adv-x="561" 
d="M538 778v-132h-328v-186h253v-132h-253v-328h-156v778h484z" />
    <glyph glyph-name="G" unicode="G" horiz-adv-x="694" 
d="M497 268h-135v123h285v-391h-109l-15 55c-44 -49 -111 -67 -163 -67c-222 0 -321 205 -321 401s99 401 321 401c153 0 271 -93 287 -241l-140 -21c-13 75 -50 139 -147 139c-134 0 -161 -178 -161 -278s27 -278 161 -278c121 0 143 69 137 157z" />
    <glyph glyph-name="H" unicode="H" horiz-adv-x="677" 
d="M210 474h257v304h156v-778h-156v342h-257v-342h-156v778h156v-304z" />
    <glyph glyph-name="I" unicode="I" horiz-adv-x="264" 
d="M210 0h-156v778h156v-778z" />
    <glyph glyph-name="J" unicode="J" horiz-adv-x="510" 
d="M460 778v-538c0 -210 -110 -252 -227 -252c-124 0 -206 53 -233 177l154 30c8 -38 30 -84 80 -84c46 0 70 34 70 100v567h156z" />
    <glyph glyph-name="K" unicode="K" horiz-adv-x="665" 
d="M210 453l238 325h180l-232 -304l261 -474h-178l-188 337l-81 -103v-234h-156v778h156v-325z" />
    <glyph glyph-name="L" unicode="L" horiz-adv-x="557" 
d="M210 778v-646h324v-132h-480v778h156z" />
    <glyph glyph-name="M" unicode="M" horiz-adv-x="852" 
d="M427 220l115 558h256v-778h-156v620h-2l-144 -620h-140l-144 620h-2v-620h-156v778h256l115 -558h2z" />
    <glyph glyph-name="N" unicode="N" horiz-adv-x="727" 
d="M54 778h228l233 -513h2v513h156v-778h-167l-294 625h-2v-625h-156v778z" />
    <glyph glyph-name="O" unicode="O" horiz-adv-x="719" 
d="M360 790c222 0 321 -205 321 -401s-99 -401 -321 -401s-321 205 -321 401s99 401 321 401zM360 667c-134 0 -161 -178 -161 -278s27 -278 161 -278s161 178 161 278s-27 278 -161 278z" />
    <glyph glyph-name="P" unicode="P" horiz-adv-x="630" 
d="M54 778h300c181 0 256 -133 256 -245c0 -118 -70 -235 -295 -235h-105v-298h-156v778zM210 430h32c85 0 208 -14 208 108s-123 108 -208 108h-32v-216z" />
    <glyph glyph-name="Q" unicode="Q" horiz-adv-x="719" 
d="M589 -80v-111h-133c-91 0 -165 0 -165 185c-106 18 -252 141 -252 395c0 196 99 401 321 401s321 -205 321 -401c0 -254 -141 -377 -264 -395c0 -70 15 -74 60 -74h112zM360 667c-134 0 -161 -178 -161 -278s27 -278 161 -278s161 178 161 278s-27 278 -161 278z" />
    <glyph glyph-name="R" unicode="R" horiz-adv-x="659" 
d="M54 778h307c179 0 249 -128 249 -227c0 -85 -53 -164 -132 -196l155 -355h-164l-140 323h-119v-323h-156v778zM210 455h68c68 0 172 -4 172 93c0 107 -105 98 -182 98h-58v-191z" />
    <glyph glyph-name="S" unicode="S" horiz-adv-x="617" 
d="M558 574l-141 -25c-15 54 -45 109 -108 109c-51 0 -95 -37 -95 -90c0 -153 366 -53 366 -343c0 -95 -72 -237 -264 -237c-148 0 -255 72 -279 224l156 23c14 -66 48 -115 122 -115c61 0 112 32 112 99c0 156 -366 66 -366 331c0 140 118 240 253 240
c132 0 231 -85 244 -216z" />
    <glyph glyph-name="T" unicode="T" horiz-adv-x="575" 
d="M568 778v-132h-202v-646h-156v646h-202v132h560z" />
    <glyph glyph-name="U" unicode="U" horiz-adv-x="647" 
d="M442 778h156v-538c0 -160 -110 -252 -274 -252s-274 92 -274 252v538h156v-488c0 -130 39 -170 118 -170s118 40 118 170v488z" />
    <glyph glyph-name="V" unicode="V" horiz-adv-x="600" 
d="M608 778l-237 -778h-142l-237 778h161l146 -578h2l146 578h161z" />
    <glyph glyph-name="W" unicode="W" horiz-adv-x="856" 
d="M864 778l-177 -778h-160l-104 538h-2l-105 -538h-160l-164 778h154l93 -548h2l97 548h172l97 -548h2l101 548h154z" />
    <glyph glyph-name="X" unicode="X" horiz-adv-x="645" 
d="M636 778l-228 -382l237 -396h-182l-141 254l-149 -254h-173l238 396l-217 382h182l125 -250l135 250h173z" />
    <glyph glyph-name="Y" unicode="Y" horiz-adv-x="653" 
d="M661 778l-258 -464v-314h-156v314l-255 464h166l168 -342l174 342h161z" />
    <glyph glyph-name="Z" unicode="Z" horiz-adv-x="569" 
d="M538 778v-126l-328 -520h328v-132h-507v122l328 524h-317v132h496z" />
    <glyph glyph-name="bracketleft" unicode="[" horiz-adv-x="329" 
d="M193 -84h136v-107h-251v969h251v-107h-136v-755z" />
    <glyph glyph-name="backslash" unicode="\" horiz-adv-x="500" 
d="M-19 778h111l426 -778h-111z" />
    <glyph glyph-name="bracketright" unicode="]" horiz-adv-x="329" 
d="M136 -84v755h-136v107h251v-969h-251v107h136z" />
    <glyph glyph-name="asciicircum" unicode="^" horiz-adv-x="584" 
d="M62 353l167 425h124l170 -425h-108l-123 306l-122 -306h-108z" />
    <glyph glyph-name="underscore" unicode="_" horiz-adv-x="500" 
d="M500 -75v-50h-500v50h500z" />
    <glyph glyph-name="quoteleft" unicode="&#x2018;" horiz-adv-x="224" 
d="M38 484v142l85 164l61 -26l-49 -132h51v-148h-148z" />
    <glyph glyph-name="a" unicode="a" horiz-adv-x="573" 
d="M390 0l-16 51c-55 -39 -88 -63 -159 -63c-97 0 -176 66 -176 166c0 158 208 190 327 203c10 78 -16 106 -71 106c-47 0 -81 -21 -89 -70l-142 22c33 119 113 157 230 157c151 0 220 -72 220 -177v-278c0 -40 2 -80 20 -117h-144zM366 170v86c-61 -11 -182 -17 -182 -99
c0 -33 16 -60 51 -60c61 0 103 36 131 73z" />
    <glyph glyph-name="b" unicode="b" horiz-adv-x="584" 
d="M54 0v778h148v-273c42 37 78 67 138 67c81 0 205 -71 205 -278c0 -236 -104 -306 -217 -306c-62 0 -97 19 -142 59l-13 -47h-119zM202 379v-216c23 -35 52 -66 96 -66c89 0 102 110 102 177c0 62 -17 166 -99 166c-43 0 -73 -30 -99 -61z" />
    <glyph glyph-name="c" unicode="c" horiz-adv-x="558" 
d="M385 205l134 -24c-24 -117 -109 -193 -234 -193c-163 0 -246 144 -246 292c0 149 82 292 246 292c125 0 210 -76 234 -193l-134 -23c-11 53 -25 107 -100 107c-80 0 -94 -113 -94 -183s14 -183 94 -183c75 0 89 54 100 108z" />
    <glyph glyph-name="d" unicode="d" horiz-adv-x="584" 
d="M411 0l-13 47c-45 -40 -80 -59 -142 -59c-113 0 -217 70 -217 306c0 207 124 278 205 278c60 0 96 -30 138 -67v273h148v-778h-119zM382 394c-26 31 -56 61 -99 61c-82 0 -99 -104 -99 -166c0 -67 13 -175 102 -175c44 0 73 29 96 64v216z" />
    <glyph glyph-name="e" unicode="e" horiz-adv-x="569" 
d="M193 338h192c0 63 -25 125 -96 125c-67 0 -94 -65 -96 -125zM530 245h-342c-5 -68 36 -148 112 -148c53 0 82 43 93 90l137 -25c-32 -111 -139 -174 -245 -174c-163 0 -246 144 -246 292c0 149 82 292 246 292c141 0 249 -67 245 -327z" />
    <glyph glyph-name="f" unicode="f" horiz-adv-x="331" 
d="M331 560v-123h-109v-437h-148v437h-74v123h74v59c0 71 46 159 164 159h93v-132h-27c-80 0 -83 12 -82 -66v-20h109z" />
    <glyph glyph-name="g" unicode="g" horiz-adv-x="599" 
d="M204 371c0 -51 24 -93 81 -93c62 0 80 51 80 104c0 51 -24 94 -80 94c-62 0 -81 -52 -81 -105zM347 -12l-164 11c-14 -9 -23 -17 -23 -35c0 -52 105 -55 140 -55c25 0 155 3 155 48c0 29 -20 26 -108 31zM285 180l-55 4c-17 0 -42 -9 -42 -35c0 -73 388 54 388 -165
c0 -83 -56 -171 -278 -171c-193 0 -259 68 -259 141c0 43 27 65 61 85c-24 18 -44 39 -44 71c0 55 30 84 73 112c-41 40 -70 90 -70 154c0 124 105 196 226 196c49 0 96 -14 138 -39c30 28 57 46 101 46c14 0 29 -1 43 -4v-104c-15 6 -31 12 -47 12s-26 -5 -40 -12
c16 -30 29 -63 30 -95c0 -124 -104 -196 -225 -196z" />
    <glyph glyph-name="h" unicode="h" horiz-adv-x="566" 
d="M200 778v-276c47 39 105 70 167 70c61 0 147 -37 147 -175v-397h-148v337c0 45 3 116 -61 116c-43 0 -77 -31 -105 -61v-392h-148v778h148z" />
    <glyph glyph-name="i" unicode="i" horiz-adv-x="257" 
d="M203 560v-560h-148v560h148zM203 778v-136h-148v136h148z" />
    <glyph glyph-name="j" unicode="j" horiz-adv-x="257" 
d="M203 560v-556c0 -149 -64 -195 -180 -195h-71v119h49c23 0 53 -5 54 80v552h148zM203 778v-136h-148v136h148z" />
    <glyph glyph-name="k" unicode="k" horiz-adv-x="556" 
d="M202 778v-428l156 210h170l-173 -210l190 -350h-166l-123 230l-54 -66v-164h-148v778h148z" />
    <glyph glyph-name="l" unicode="l" horiz-adv-x="257" 
d="M203 778v-778h-148v778h148z" />
    <glyph glyph-name="m" unicode="m" horiz-adv-x="893" 
d="M201 560v-58c47 39 105 70 167 70c69 0 115 -25 143 -77c51 42 104 77 173 77c87 0 157 -57 157 -167v-405h-148v353c0 44 3 100 -59 100c-47 0 -87 -29 -113 -66v-387h-148v353c0 44 3 100 -59 100c-47 0 -87 -29 -113 -66v-387h-148v560h148z" />
    <glyph glyph-name="n" unicode="n" horiz-adv-x="566" 
d="M200 560v-58c47 39 105 70 167 70c61 0 147 -37 147 -175v-397h-148v337c0 45 3 116 -61 116c-43 0 -77 -31 -105 -61v-392h-148v560h148z" />
    <glyph glyph-name="o" unicode="o" horiz-adv-x="570" 
d="M285 -12c-163 0 -246 144 -246 292c0 149 82 292 246 292s246 -143 246 -292c0 -148 -83 -292 -246 -292zM285 97c80 0 94 113 94 183s-14 183 -94 183s-94 -113 -94 -183s14 -183 94 -183z" />
    <glyph glyph-name="p" unicode="p" horiz-adv-x="584" 
d="M202 560v-55c42 37 78 67 138 67c81 0 205 -71 205 -278c0 -236 -104 -306 -217 -306c-47 0 -85 21 -126 52v-231h-148v751h148zM202 379v-216c23 -35 52 -66 96 -66c89 0 102 110 102 177c0 62 -17 166 -99 166c-43 0 -73 -30 -99 -61z" />
    <glyph glyph-name="q" unicode="q" horiz-adv-x="584" 
d="M530 560v-751h-148v227c-44 -29 -78 -48 -126 -48c-113 0 -217 70 -217 306c0 207 124 278 205 278c74 0 109 -19 154 -59l13 47h119zM382 146v255c-21 28 -50 42 -86 42c-92 0 -112 -94 -112 -167s23 -168 112 -168c34 0 61 17 86 38z" />
    <glyph glyph-name="r" unicode="r" horiz-adv-x="417" 
d="M202 560v-98c57 67 103 110 171 110h28v-148c-14 3 -28 6 -43 6c-38 0 -156 -35 -156 -184v-246h-148v560h148z" />
    <glyph glyph-name="s" unicode="s" horiz-adv-x="487" 
d="M449 413l-140 -17c-7 39 -20 67 -64 67c-35 0 -60 -26 -60 -62c0 -96 271 -26 271 -236c0 -119 -99 -177 -213 -177c-115 0 -188 56 -203 172l139 15c3 -40 24 -78 69 -78c37 0 72 17 72 60c0 98 -271 18 -271 236c0 113 97 179 206 179c98 0 177 -62 194 -159z" />
    <glyph glyph-name="t" unicode="t" horiz-adv-x="332" 
d="M217 700v-140h115v-123h-115v-285c0 -27 8 -55 56 -55c25 0 41 10 59 21v-113c-31 -9 -63 -17 -95 -17c-92 0 -168 52 -168 174v275h-69v123h69v140h148z" />
    <glyph glyph-name="u" unicode="u" horiz-adv-x="566" 
d="M366 0v58c-47 -39 -105 -70 -167 -70c-61 0 -147 37 -147 175v397h148v-337c0 -45 -3 -116 61 -116c43 0 77 31 105 61v392h148v-560h-148z" />
    <glyph glyph-name="v" unicode="v" horiz-adv-x="499" 
d="M499 560l-169 -560h-156l-174 560h155l98 -401h2l96 401h148z" />
    <glyph glyph-name="w" unicode="w" horiz-adv-x="692" 
d="M692 560l-143 -560h-139l-66 375h-2l-68 -375h-139l-135 560h135l68 -371h2l71 371h149l62 -371h2l76 371h127z" />
    <glyph glyph-name="x" unicode="x" horiz-adv-x="542" 
d="M530 560l-178 -267l186 -293h-167l-104 180l-102 -180h-161l185 282l-174 278h167l92 -159l95 159h161z" />
    <glyph glyph-name="y" unicode="y" horiz-adv-x="528" 
d="M528 560l-216 -605c-36 -102 -72 -161 -190 -161c-32 0 -64 4 -95 11v127c22 -8 40 -14 64 -14c67 0 91 38 109 96l-200 546h160l113 -369l103 369h152z" />
    <glyph glyph-name="z" unicode="z" horiz-adv-x="524" 
d="M485 560v-105l-261 -338h261v-117h-446v100l257 343h-240v117h429z" />
    <glyph glyph-name="braceleft" unicode="{" horiz-adv-x="389" 
d="M36 245v97c20 -1 82 -5 82 50v244c0 100 77 142 113 142h85v-97h-37c-46 0 -46 -31 -46 -61v-224c-2 -80 -65 -99 -96 -101v-3c31 -2 94 -21 96 -101v-224c0 -30 0 -61 46 -61h37v-97h-85c-36 0 -113 42 -113 142v244c0 55 -62 51 -82 50z" />
    <glyph glyph-name="bar" unicode="|" horiz-adv-x="280" 
d="M198 750v-1000h-115v1000h115z" />
    <glyph glyph-name="braceright" unicode="}" horiz-adv-x="389" 
d="M353 342v-97c-20 1 -82 5 -82 -50v-244c0 -100 -77 -142 -113 -142h-85v97h37c46 0 46 31 46 61v224c2 80 65 99 96 101v3c-31 2 -94 21 -96 101v224c0 30 0 61 -46 61h-37v97h85c36 0 113 -42 113 -142v-244c0 -55 62 -51 82 -50z" />
    <glyph glyph-name="asciitilde" unicode="~" horiz-adv-x="584" 
d="M415 323h83c4 -70 -44 -153 -130 -153c-66 0 -114 39 -158 39c-24 0 -36 -19 -38 -39h-85c-6 69 46 153 127 153c68 0 113 -36 162 -36c24 0 35 16 39 36z" />
    <glyph glyph-name="exclamdown" unicode="&#xa1;" horiz-adv-x="247" 
d="M185 323l23 -514h-169l23 514h123zM49 412v148h148v-148h-148z" />
    <glyph glyph-name="cent" unicode="&#xa2;" 
d="M418 324l134 -24c-21 -102 -88 -176 -193 -191v-89h-96v93c-134 35 -193 147 -193 279c0 134 55 254 193 291v95h96v-90c104 -13 173 -89 193 -190l-134 -23c-11 53 -25 107 -92 107c-90 0 -102 -115 -102 -183s12 -183 102 -183c67 0 81 54 92 108z" />
    <glyph glyph-name="sterling" unicode="&#xa3;" 
d="M217 129c-23 15 -41 29 -69 29c-23 0 -43 -10 -43 -36c0 -24 20 -40 43 -40c32 0 49 25 69 47zM192 357h-130v111h90c-8 36 -14 73 -14 110c0 133 105 212 232 212c105 0 183 -54 215 -155l-129 -43c-11 39 -45 75 -88 75c-52 0 -73 -44 -73 -90c0 -37 10 -73 20 -109
h158v-111h-121c11 -38 18 -78 18 -118c0 -27 -4 -53 -10 -79c41 -25 63 -40 88 -40c36 0 49 20 77 63l113 -54c-40 -70 -78 -141 -170 -141c-59 0 -110 34 -155 70c-45 -45 -94 -70 -158 -70c-83 0 -159 48 -159 138c0 75 58 130 132 130c37 0 65 -9 97 -23
c-7 43 -15 85 -33 124z" />
    <glyph glyph-name="fraction" unicode="&#x2044;" horiz-adv-x="177" 
d="M239 778h94l-394 -778h-94z" />
    <glyph glyph-name="yen" unicode="&#xa5;" 
d="M622 778l-134 -218h109v-111h-177l-31 -57v-34h208v-111h-208v-247h-156v247h-208v111h208v34l-36 57h-172v111h106l-131 218h166l145 -264l150 264h161z" />
    <glyph glyph-name="florin" unicode="&#x192;" 
d="M491 469v-111h-98l-38 -356c-15 -141 -30 -193 -187 -193h-86v132h30c75 0 88 -15 97 70l36 347h-77v111h89l12 116c13 132 56 193 185 193h87v-132h-81c-25 0 -36 11 -43 -57l-12 -120h86z" />
    <glyph glyph-name="section" unicode="&#xa7;" 
d="M250 254l147 -64c25 20 49 46 49 80c0 49 -35 65 -74 82l-147 64c-25 -20 -49 -46 -49 -80c0 -49 35 -65 74 -82zM544 626l-131 -44c-21 45 -46 85 -103 85c-36 0 -79 -19 -79 -61c0 -46 43 -58 80 -72l91 -36c90 -35 174 -92 174 -199c0 -69 -43 -125 -94 -169
c32 -34 53 -72 53 -120c0 -120 -106 -205 -223 -205c-108 0 -199 63 -234 164l131 44c21 -45 46 -85 103 -85c36 0 79 19 79 61c0 46 -43 58 -80 72l-91 36c-90 35 -174 92 -174 199c0 69 43 125 94 169c-32 34 -53 72 -53 120c0 120 106 205 223 205
c108 0 199 -63 234 -164z" />
    <glyph glyph-name="currency" unicode="&#xa4;" 
d="M588 151l-74 -75l-87 84c-26 -17 -66 -30 -116 -30s-90 13 -126 34l-77 -88l-74 75l86 87c-25 38 -36 67 -36 113s11 75 36 113l-86 87l74 75l77 -88c36 21 76 34 126 34s90 -13 116 -30l87 84l74 -75l-86 -87c25 -38 36 -67 36 -113s-11 -75 -36 -113zM311 458
c-66 0 -111 -58 -107 -107c-4 -49 41 -107 107 -107s111 58 107 107c4 49 -41 107 -107 107z" />
    <glyph glyph-name="quotesingle" unicode="'" horiz-adv-x="238" 
d="M50 778h138v-130l-42 -129h-54l-42 129v130z" />
    <glyph glyph-name="quotedblleft" unicode="&#x201c;" horiz-adv-x="409" 
d="M223 484v142l85 164l61 -26l-49 -132h51v-148h-148zM38 484v142l85 164l61 -26l-49 -132h51v-148h-148z" />
    <glyph glyph-name="guillemotleft" unicode="&#xab;" horiz-adv-x="489" 
d="M341 73l-92 223l92 223h109l-84 -223l84 -223h-109zM131 73l-92 223l92 223h109l-84 -223l84 -223h-109z" />
    <glyph glyph-name="guilsinglleft" unicode="&#x2039;" horiz-adv-x="279" 
d="M131 73l-92 223l92 223h109l-84 -223l84 -223h-109z" />
    <glyph glyph-name="guilsinglright" unicode="&#x203a;" horiz-adv-x="279" 
d="M240 296l-92 -223h-109l84 223l-84 223h109z" />
    <glyph glyph-name="endash" unicode="&#x2013;" horiz-adv-x="500" 
d="M0 358h500v-124h-500v124z" />
    <glyph glyph-name="dagger" unicode="&#x2020;" 
d="M385 778v-218h182v-123h-182v-628h-148v628h-182v123h182v218h148z" />
    <glyph glyph-name="daggerdbl" unicode="&#x2021;" 
d="M385 778v-191h182v-123h-182v-341h182v-123h-182v-191h-148v191h-182v123h182v341h-182v123h182v191h148z" />
    <glyph glyph-name="periodcentered" unicode="&#xb7;" horiz-adv-x="311" 
d="M230 321v-148h-148v148h148z" />
    <glyph glyph-name="paragraph" unicode="&#xb6;" horiz-adv-x="670" 
d="M622 778v-967h-105v877h-90v-877h-105v547h-71c-157 0 -221 120 -221 209c0 124 90 211 211 211h381zM322 688h-43c-80 0 -121 -41 -121 -118c0 -72 42 -122 110 -122h54v240z" />
    <glyph glyph-name="bullet" unicode="&#x2022;" horiz-adv-x="453" 
d="M414 385c0 -104 -84 -188 -188 -188c-103 0 -187 83 -187 188c-2 103 82 187 187 187c104 0 188 -84 188 -187z" />
    <glyph glyph-name="quotesinglbase" unicode="&#x201a;" horiz-adv-x="224" 
d="M186 148v-142l-85 -164l-61 26l49 132h-51v148h148z" />
    <glyph glyph-name="quotedblbase" unicode="&#x201e;" horiz-adv-x="409" 
d="M186 148v-142l-85 -164l-61 26l49 132h-51v148h148zM371 148v-142l-85 -164l-61 26l49 132h-51v148h148z" />
    <glyph glyph-name="quotedblright" unicode="&#x201d;" horiz-adv-x="409" 
d="M186 778v-142l-85 -164l-61 26l49 132h-51v148h148zM371 778v-142l-85 -164l-61 26l49 132h-51v148h148z" />
    <glyph glyph-name="guillemotright" unicode="&#xbb;" horiz-adv-x="489" 
d="M240 296l-92 -223h-109l84 223l-84 223h109zM450 296l-92 -223h-109l84 223l-84 223h109z" />
    <glyph glyph-name="ellipsis" unicode="&#x2026;" horiz-adv-x="1000" 
d="M241 148v-148h-148v148h148zM574 148v-148h-148v148h148zM907 148v-148h-148v148h148z" />
    <glyph glyph-name="perthousand" unicode="&#x2030;" horiz-adv-x="1249" 
d="M656 389c131 0 167 -105 167 -207c0 -99 -46 -194 -167 -194s-167 95 -167 194c0 102 36 207 167 207zM656 299c-53 0 -52 -64 -52 -117c0 -47 4 -104 52 -104s52 57 52 104c0 53 1 117 -52 117zM196 790c131 0 167 -105 167 -207c0 -99 -46 -194 -167 -194
s-167 95 -167 194c0 102 36 207 167 207zM196 700c-53 0 -52 -64 -52 -117c0 -47 4 -104 52 -104s52 57 52 104c0 53 1 117 -52 117zM1053 389c131 0 167 -105 167 -207c0 -99 -46 -194 -167 -194s-167 95 -167 194c0 102 36 207 167 207zM1053 299c-53 0 -52 -64 -52 -117
c0 -47 4 -104 52 -104s52 57 52 104c0 53 1 117 -52 117zM576 778h94l-394 -778h-94z" />
    <glyph glyph-name="questiondown" unicode="&#xbf;" horiz-adv-x="447" 
d="M311 -6l113 -70c-42 -80 -111 -130 -203 -130c-110 0 -198 56 -198 175c0 186 187 178 175 354h134v-33c0 -148 -175 -210 -175 -314c0 -31 24 -59 56 -59c47 0 81 36 98 77zM192 412v148h148v-148h-148z" />
    <glyph glyph-name="grave" unicode="`" horiz-adv-x="350" 
d="M186 778l59 -140h-92l-103 140h136z" />
    <glyph glyph-name="acute" unicode="&#xb4;" horiz-adv-x="350" 
d="M105 638l59 140h136l-103 -140h-92z" />
    <glyph glyph-name="circumflex" unicode="&#x2c6;" horiz-adv-x="531" 
d="M331 778l122 -140h-135l-56 63l-52 -63h-132l117 140h136z" />
    <glyph glyph-name="tilde" unicode="&#x2dc;" horiz-adv-x="498" 
d="M351 778h69c4 -64 -36 -139 -108 -139c-55 0 -95 35 -132 35c-20 0 -30 -17 -31 -35h-71c-5 63 38 139 106 139c56 0 94 -33 135 -33c20 0 29 15 32 33z" />
    <glyph glyph-name="macron" unicode="&#xaf;" horiz-adv-x="576" 
d="M498 778v-105h-420v105h420z" />
    <glyph glyph-name="breve" unicode="&#x2d8;" horiz-adv-x="499" 
d="M78 790h64c17 -42 64 -65 107 -65s91 23 108 65h64c-1 -87 -86 -166 -172 -166c-85 0 -170 79 -171 166z" />
    <glyph glyph-name="dotaccent" unicode="&#x2d9;" horiz-adv-x="303" 
d="M226 778v-148h-148v148h148z" />
    <glyph glyph-name="dieresis" unicode="&#xa8;" horiz-adv-x="533" 
d="M226 778v-148h-148v148h148zM455 778v-148h-148v148h148z" />
    <glyph glyph-name="ring" unicode="&#x2da;" horiz-adv-x="389" 
d="M78 705c0 64 52 117 116 117c65 0 117 -53 117 -117c0 -65 -52 -117 -117 -117c-64 0 -116 52 -116 117zM148 705c0 -26 21 -47 46 -47c26 0 47 21 47 47s-21 47 -47 47c-25 0 -46 -21 -46 -47z" />
    <glyph glyph-name="cedilla" unicode="&#xb8;" horiz-adv-x="303" 
d="M225 -65l-68 -167h-79l25 167h122z" />
    <glyph glyph-name="hungarumlaut" unicode="&#x2dd;" horiz-adv-x="545" 
d="M136 778h137l-104 -140h-91zM331 778h137l-104 -140h-91z" />
    <glyph glyph-name="ogonek" unicode="&#x2db;" horiz-adv-x="343" 
d="M265 -81v-62c-28 -29 -60 -48 -102 -48c-51 0 -88 38 -88 88c0 45 35 85 74 103h77v-4c-30 -10 -75 -36 -75 -71c0 -19 20 -34 38 -34c25 0 54 17 76 28z" />
    <glyph glyph-name="caron" unicode="&#x2c7;" horiz-adv-x="531" 
d="M453 778l-122 -140h-136l-117 140h132l52 -63l56 63h135z" />
    <glyph glyph-name="emdash" unicode="&#x2014;" horiz-adv-x="1000" 
d="M0 358h1000v-124h-1000v124z" />
    <glyph glyph-name="AE" unicode="&#xc6;" horiz-adv-x="895" 
d="M483 0l-51 195h-230l-51 -195h-159l218 778h613v-132h-371l52 -186h269v-132h-230l56 -196h250v-132h-366zM401 318l-82 326h-4l-82 -326h168z" />
    <glyph glyph-name="ordfeminine" unicode="&#xaa;" horiz-adv-x="322" 
d="M207 553v40c-28 -4 -101 -13 -101 -51c0 -18 14 -29 32 -29c27 0 53 19 69 40zM207 669v13c0 23 -6 38 -40 38c-29 0 -48 -10 -53 -39l-92 13c20 72 70 96 141 96c92 0 139 -28 139 -134v-135c0 -27 1 -46 13 -71h-92l-10 28c-30 -21 -53 -35 -91 -35
c-57 0 -114 33 -114 96c0 99 124 118 199 130z" />
    <glyph glyph-name="Lslash" unicode="&#x141;" horiz-adv-x="557" 
d="M210 471l178 101v-102l-178 -102v-236h324v-132h-480v302l-80 -45v101l80 45v375h156v-307z" />
    <glyph glyph-name="Oslash" unicode="&#xd8;" horiz-adv-x="719" 
d="M508 500l-252 -351c22 -27 58 -44 104 -44c95 0 161 68 161 280c0 38 -7 77 -13 115zM560 714l49 76l72 -51l-66 -94c45 -73 66 -165 66 -256c0 -196 -99 -401 -321 -401c-75 0 -135 23 -180 59l-72 -90l-69 51l82 103c-57 79 -82 180 -82 278c0 196 99 401 321 401
c84 0 151 -30 200 -76zM218 243l260 363c-23 44 -62 67 -118 67c-145 0 -161 -176 -161 -288c0 -46 5 -93 19 -142z" />
    <glyph glyph-name="OE" unicode="&#x152;" horiz-adv-x="1072" 
d="M523 0v52c-53 -42 -106 -64 -163 -64c-222 0 -321 205 -321 401s99 401 321 401c58 0 110 -20 163 -61v49h484v-132h-337v-186h281v-132h-281v-196h356v-132h-503zM360 667c-134 0 -161 -178 -161 -278s27 -278 161 -278s161 178 161 278s-27 278 -161 278z" />
    <glyph glyph-name="ordmasculine" unicode="&#xba;" horiz-adv-x="345" 
d="M325 617c0 -92 -54 -174 -153 -174c-98 0 -152 82 -152 174c0 91 53 173 152 173s153 -82 153 -173zM118 617c0 -35 7 -104 55 -104s54 69 54 104s-6 103 -54 103c-49 0 -55 -68 -55 -103z" />
    <glyph glyph-name="ae" unicode="&#xe6;" horiz-adv-x="875" 
d="M372 172l-6 84c-61 -11 -182 -17 -182 -99c0 -33 16 -60 51 -60c49 0 100 38 137 75zM699 187l137 -25c-32 -111 -139 -174 -245 -174c-78 0 -146 30 -190 93c-51 -55 -118 -93 -186 -93c-97 0 -176 66 -176 166c0 158 208 190 327 203c10 78 -16 106 -71 106
c-47 0 -81 -21 -89 -70l-142 22c33 119 113 157 230 157c62 0 109 -15 161 -63c42 43 95 63 136 63c141 0 249 -67 245 -327h-342c-5 -68 36 -148 112 -148c53 0 82 43 93 90zM499 338h192c0 63 -25 125 -96 125c-67 0 -94 -65 -96 -125z" />
    <glyph glyph-name="dotlessi" unicode="&#x131;" horiz-adv-x="257" 
d="M203 560v-560h-148v560h148z" />
    <glyph glyph-name="lslash" unicode="&#x142;" horiz-adv-x="257" 
d="M203 472l82 42v-93l-82 -43v-378h-148v323l-83 -42v96l83 40v361h148v-306z" />
    <glyph glyph-name="oslash" unicode="&#xf8;" horiz-adv-x="570" 
d="M195 210l168 186c-14 32 -33 67 -78 67c-80 0 -94 -113 -94 -183c0 -23 1 -38 4 -70zM461 492l66 80l38 -42l-73 -83c26 -49 39 -108 39 -167c0 -148 -83 -292 -246 -292c-75 0 -134 31 -170 74l-69 -74l-39 38l75 81c-29 54 -43 113 -43 173c0 149 82 292 246 292
c77 0 136 -32 176 -80zM377 333l-163 -185c12 -21 24 -51 71 -51c80 0 94 113 94 183c0 9 -2 32 -2 53z" />
    <glyph glyph-name="oe" unicode="&#x153;" horiz-adv-x="908" 
d="M285 97c90 0 106 106 106 180c0 73 -16 186 -106 186c-80 0 -94 -113 -94 -183s14 -183 94 -183zM869 245h-342c-5 -68 36 -148 112 -148c53 0 82 43 93 90l137 -25c-32 -111 -139 -174 -245 -174c-63 0 -126 27 -168 80c-42 -54 -103 -80 -171 -80
c-163 0 -246 144 -246 292c0 149 82 292 246 292c66 0 133 -28 177 -80c43 53 106 77 162 80c141 0 249 -67 245 -327zM532 338h192c0 63 -25 125 -96 125c-67 0 -94 -65 -96 -125z" />
    <glyph glyph-name="germandbls" unicode="&#xdf;" horiz-adv-x="587" 
d="M276 0v106c10 -2 18 -4 28 -4c68 0 90 94 90 147c0 65 -23 152 -118 137v109c59 -1 94 29 94 90c0 47 -26 82 -76 82c-103 0 -92 -97 -92 -171v-496h-148v542c0 173 111 248 231 248c150 0 230 -80 230 -197c0 -62 -29 -113 -83 -143c83 -36 113 -130 113 -212
c0 -130 -70 -250 -212 -250c-19 0 -38 7 -57 12z" />
    <glyph glyph-name="onesuperior" unicode="&#xb9;" horiz-adv-x="373" 
d="M245 783v-377h71v-90h-258v90h72v275h-72v66l107 36h80z" />
    <glyph glyph-name="logicalnot" unicode="&#xac;" horiz-adv-x="584" 
d="M419 131v182h-369v109h484v-291h-115z" />
    <glyph glyph-name="mu" unicode="&#xb5;" horiz-adv-x="566" 
d="M366 0v58c-48 -39 -112 -70 -166 -70v-179h-148v751h148v-337c0 -45 -3 -116 61 -116c43 0 77 31 105 61v392h148v-560h-148z" />
    <glyph glyph-name="trademark" unicode="&#x2122;" horiz-adv-x="1000" 
d="M919 778v-404h-100v274h-2l-101 -274h-60l-101 274h-2v-274h-100v404h142l91 -229l91 229h142zM404 778v-88h-119v-316h-105v316h-119v88h343z" />
    <glyph glyph-name="Eth" unicode="&#xd0;" horiz-adv-x="684" 
d="M54 778h190c296 0 401 -168 401 -389c0 -219 -115 -389 -347 -389h-244v328h-74v132h74v318zM210 132h76c124 0 199 78 199 275c0 163 -70 239 -216 239h-59v-186h135v-132h-135v-196z" />
    <glyph glyph-name="onehalf" unicode="&#xbd;" horiz-adv-x="933" 
d="M591 778h94l-394 -778h-94zM222 783v-377h71v-90h-258v90h72v275h-72v66l107 36h80zM896 90v-90h-333v112c97 120 220 162 220 218c0 36 -21 54 -48 54c-52 0 -69 -22 -76 -64l-106 20c3 85 76 134 179 134c114 0 166 -63 166 -136c0 -138 -123 -146 -222 -248h220z" />
    <glyph glyph-name="plusminus" unicode="&#xb1;" horiz-adv-x="584" 
d="M235 493h115v-116h184v-109h-184v-116h-115v116h-185v109h185v116zM50 0v109h484v-109h-484z" />
    <glyph glyph-name="Thorn" unicode="&#xde;" horiz-adv-x="630" 
d="M54 778h156v-148h144c181 0 256 -133 256 -245c0 -118 -70 -235 -295 -235h-105v-150h-156v778zM210 282h32c85 0 208 -14 208 108s-123 108 -208 108h-32v-216z" />
    <glyph glyph-name="onequarter" unicode="&#xbc;" horiz-adv-x="933" 
d="M831 0h-115v90h-205v81l182 296h138v-287h58v-90h-58v-90zM613 778h94l-394 -778h-94zM716 180v167h-3l-95 -167h98zM238 783v-377h71v-90h-258v90h72v275h-72v66l107 36h80z" />
    <glyph glyph-name="divide" unicode="&#xf7;" horiz-adv-x="584" 
d="M534 301v-109h-484v109h484zM234 0v111h115v-111h-115zM234 382v111h115v-111h-115z" />
    <glyph glyph-name="brokenbar" unicode="&#xa6;" horiz-adv-x="280" 
d="M198 675v-350h-115v350h115zM198 175v-350h-115v350h115z" />
    <glyph glyph-name="degree" unicode="&#xb0;" horiz-adv-x="400" 
d="M360 630c0 -93 -68 -160 -160 -160c-93 0 -160 67 -160 160c-1 92 67 160 160 160c92 0 160 -68 160 -160zM270 630c0 38 -32 70 -70 70c-39 0 -71 -32 -70 -70c0 -39 31 -70 70 -70c38 0 70 31 70 70z" />
    <glyph glyph-name="thorn" unicode="&#xfe;" horiz-adv-x="584" 
d="M202 778v-273c42 37 78 67 138 67c81 0 205 -71 205 -278c0 -236 -104 -306 -217 -306c-47 0 -85 21 -126 52v-231h-148v969h148zM202 379v-216c23 -35 52 -66 96 -66c89 0 102 110 102 177c0 62 -17 166 -99 166c-43 0 -73 -30 -99 -61z" />
    <glyph glyph-name="threequarters" unicode="&#xbe;" horiz-adv-x="933" 
d="M845 0h-115v90h-205v81l182 296h138v-287h58v-90h-58v-90zM627 778h94l-394 -778h-94zM730 180v167h-3l-95 -167h98zM137 515v90c37 -1 117 0 117 50c0 18 -21 45 -57 45c-39 0 -58 -26 -66 -42l-97 33c31 62 90 99 165 99c82 0 170 -30 170 -127c0 -51 -32 -78 -84 -99
c56 -19 93 -57 93 -109c0 -109 -88 -146 -184 -146c-84 0 -162 47 -179 126l104 18c8 -26 28 -54 78 -54c39 0 66 29 66 50c0 56 -81 68 -126 66z" />
    <glyph glyph-name="twosuperior" unicode="&#xb2;" horiz-adv-x="373" 
d="M352 406v-90h-333v112c97 120 220 162 220 218c0 36 -21 54 -48 54c-52 0 -69 -22 -76 -64l-106 20c3 85 76 134 179 134c114 0 166 -63 166 -136c0 -138 -123 -146 -222 -248h220z" />
    <glyph glyph-name="registered" unicode="&#xae;" horiz-adv-x="860" 
d="M430 -12c-234 0 -401 179 -401 401s167 401 401 401c233 0 401 -179 401 -401s-168 -401 -401 -401zM430 76c178 0 313 121 313 313s-135 313 -313 313c-169 0 -313 -121 -313 -313s144 -313 313 -313zM260 623h200c121 0 175 -67 175 -150c0 -65 -37 -113 -98 -132
l95 -185h-118l-79 166h-70v-166h-105v467zM365 410h42c44 0 113 -2 113 61c0 69 -69 64 -119 64h-36v-125z" />
    <glyph glyph-name="minus" unicode="&#x2212;" horiz-adv-x="584" 
d="M50 192v109h484v-109h-484z" />
    <glyph glyph-name="eth" unicode="&#xf0;" horiz-adv-x="570" 
d="M285 97c80 0 94 113 94 183s-14 183 -94 183s-94 -113 -94 -183s14 -183 94 -183zM483 764l37 -62l-103 -32c91 -106 113 -222 114 -306c3 -230 -79 -376 -246 -376c-163 0 -246 144 -246 292c0 124 55 285 233 285c36 0 68 -11 104 -37c-12 32 -51 80 -77 106l-152 -47
l-36 61l131 41c-25 22 -53 42 -82 61l134 28c23 -17 45 -35 66 -52z" />
    <glyph glyph-name="multiply" unicode="&#xd7;" horiz-adv-x="584" 
d="M292 169l-162 -162l-80 78l162 162l-162 162l80 78l162 -162l162 162l80 -78l-162 -162l162 -162l-80 -78z" />
    <glyph glyph-name="threesuperior" unicode="&#xb3;" horiz-adv-x="373" 
d="M127 515v90c37 -1 117 0 117 50c0 18 -21 45 -57 45c-39 0 -58 -26 -66 -42l-97 33c31 62 90 99 165 99c82 0 170 -30 170 -127c0 -51 -32 -78 -84 -99c56 -19 93 -57 93 -109c0 -109 -88 -146 -184 -146c-84 0 -162 47 -179 126l104 18c8 -26 28 -54 78 -54
c39 0 66 29 66 50c0 56 -81 68 -126 66z" />
    <glyph glyph-name="copyright" unicode="&#xa9;" horiz-adv-x="860" 
d="M430 -12c-234 0 -401 179 -401 401s167 401 401 401c233 0 401 -179 401 -401s-168 -401 -401 -401zM430 76c178 0 313 121 313 313s-135 313 -313 313c-169 0 -313 -121 -313 -313s144 -313 313 -313zM525 314l108 -11c-15 -96 -85 -154 -203 -154
c-113 0 -208 73 -208 236c0 143 69 245 208 245c117 0 187 -55 203 -154l-108 -12c-9 48 -33 92 -95 92c-63 0 -86 -107 -86 -167s23 -166 86 -166c61 0 86 43 95 91z" />
    <glyph glyph-name="Aacute" unicode="&#xc1;" horiz-adv-x="634" 
d="M420 778l222 -778h-159l-51 195h-230l-51 -195h-159l218 778h210zM401 318l-82 326h-4l-82 -326h168zM247 856l59 140h136l-103 -140h-92z" />
    <glyph glyph-name="Acircumflex" unicode="&#xc2;" horiz-adv-x="634" 
d="M420 778l222 -778h-159l-51 195h-230l-51 -195h-159l218 778h210zM401 318l-82 326h-4l-82 -326h168zM371 996l122 -140h-135l-56 63l-52 -63h-132l117 140h136z" />
    <glyph glyph-name="Adieresis" unicode="&#xc4;" horiz-adv-x="634" 
d="M420 778l222 -778h-159l-51 195h-230l-51 -195h-159l218 778h210zM401 318l-82 326h-4l-82 -326h168zM277 996v-148h-148v148h148zM506 996v-148h-148v148h148z" />
    <glyph glyph-name="Agrave" unicode="&#xc0;" horiz-adv-x="634" 
d="M420 778l222 -778h-159l-51 195h-230l-51 -195h-159l218 778h210zM401 318l-82 326h-4l-82 -326h168zM328 996l59 -140h-92l-103 140h136z" />
    <glyph glyph-name="Aring" unicode="&#xc5;" horiz-adv-x="634" 
d="M420 778l222 -778h-159l-51 195h-230l-51 -195h-159l218 778h210zM401 318l-82 326h-4l-82 -326h168zM201 923c0 64 52 117 116 117c65 0 117 -53 117 -117c0 -65 -52 -117 -117 -117c-64 0 -116 52 -116 117zM271 923c0 -26 21 -47 46 -47c26 0 47 21 47 47
s-21 47 -47 47c-25 0 -46 -21 -46 -47z" />
    <glyph glyph-name="Atilde" unicode="&#xc3;" horiz-adv-x="634" 
d="M420 778l222 -778h-159l-51 195h-230l-51 -195h-159l218 778h210zM401 318l-82 326h-4l-82 -326h168zM419 996h69c4 -64 -36 -139 -108 -139c-55 0 -95 35 -132 35c-20 0 -30 -17 -31 -35h-71c-5 63 38 139 106 139c56 0 94 -33 135 -33c20 0 29 15 32 33z" />
    <glyph glyph-name="Ccedilla" unicode="&#xc7;" horiz-adv-x="692" 
d="M505 264l148 -19c-24 -160 -131 -257 -293 -257c-222 0 -321 205 -321 401s99 401 321 401c160 0 267 -92 293 -257l-148 -20c-15 81 -51 154 -145 154c-134 0 -161 -178 -161 -278s27 -278 161 -278c93 0 130 73 145 153zM420 -65l-68 -167h-79l25 167h122z" />
    <glyph glyph-name="Eacute" unicode="&#xc9;" horiz-adv-x="600" 
d="M538 778v-132h-328v-186h272v-132h-272v-196h347v-132h-503v778h484zM230 856l59 140h136l-103 -140h-92z" />
    <glyph glyph-name="Ecircumflex" unicode="&#xca;" horiz-adv-x="600" 
d="M538 778v-132h-328v-186h272v-132h-272v-196h347v-132h-503v778h484zM366 996l122 -140h-135l-56 63l-52 -63h-132l117 140h136z" />
    <glyph glyph-name="Edieresis" unicode="&#xcb;" horiz-adv-x="600" 
d="M538 778v-132h-328v-186h272v-132h-272v-196h347v-132h-503v778h484zM260 996v-148h-148v148h148zM489 996v-148h-148v148h148z" />
    <glyph glyph-name="Egrave" unicode="&#xc8;" horiz-adv-x="600" 
d="M538 778v-132h-328v-186h272v-132h-272v-196h347v-132h-503v778h484zM311 996l59 -140h-92l-103 140h136z" />
    <glyph glyph-name="Iacute" unicode="&#xcd;" horiz-adv-x="264" 
d="M210 0h-156v778h156v-778zM62 856l59 140h136l-103 -140h-92z" />
    <glyph glyph-name="Icircumflex" unicode="&#xce;" horiz-adv-x="264" 
d="M210 0h-156v778h156v-778zM198 996l122 -140h-135l-56 63l-52 -63h-132l117 140h136z" />
    <glyph glyph-name="Idieresis" unicode="&#xcf;" horiz-adv-x="264" 
d="M210 0h-156v778h156v-778zM92 996v-148h-148v148h148zM321 996v-148h-148v148h148z" />
    <glyph glyph-name="Igrave" unicode="&#xcc;" horiz-adv-x="264" 
d="M210 0h-156v778h156v-778zM143 996l59 -140h-92l-103 140h136z" />
    <glyph glyph-name="Ntilde" unicode="&#xd1;" horiz-adv-x="727" 
d="M54 778h228l233 -513h2v513h156v-778h-167l-294 625h-2v-625h-156v778zM466 996h69c4 -64 -36 -139 -108 -139c-55 0 -95 35 -132 35c-20 0 -30 -17 -31 -35h-71c-5 63 38 139 106 139c56 0 94 -33 135 -33c20 0 29 15 32 33z" />
    <glyph glyph-name="Oacute" unicode="&#xd3;" horiz-adv-x="719" 
d="M360 790c222 0 321 -205 321 -401s-99 -401 -321 -401s-321 205 -321 401s99 401 321 401zM360 667c-134 0 -161 -178 -161 -278s27 -278 161 -278s161 178 161 278s-27 278 -161 278zM290 856l59 140h136l-103 -140h-92z" />
    <glyph glyph-name="Ocircumflex" unicode="&#xd4;" horiz-adv-x="719" 
d="M360 790c222 0 321 -205 321 -401s-99 -401 -321 -401s-321 205 -321 401s99 401 321 401zM360 667c-134 0 -161 -178 -161 -278s27 -278 161 -278s161 178 161 278s-27 278 -161 278zM425 996l122 -140h-135l-56 63l-52 -63h-132l117 140h136z" />
    <glyph glyph-name="Odieresis" unicode="&#xd6;" horiz-adv-x="719" 
d="M360 790c222 0 321 -205 321 -401s-99 -401 -321 -401s-321 205 -321 401s99 401 321 401zM360 667c-134 0 -161 -178 -161 -278s27 -278 161 -278s161 178 161 278s-27 278 -161 278zM319 996v-148h-148v148h148zM548 996v-148h-148v148h148z" />
    <glyph glyph-name="Ograve" unicode="&#xd2;" horiz-adv-x="719" 
d="M360 790c222 0 321 -205 321 -401s-99 -401 -321 -401s-321 205 -321 401s99 401 321 401zM360 667c-134 0 -161 -178 -161 -278s27 -278 161 -278s161 178 161 278s-27 278 -161 278zM371 996l59 -140h-92l-103 140h136z" />
    <glyph glyph-name="Otilde" unicode="&#xd5;" horiz-adv-x="719" 
d="M360 790c222 0 321 -205 321 -401s-99 -401 -321 -401s-321 205 -321 401s99 401 321 401zM360 667c-134 0 -161 -178 -161 -278s27 -278 161 -278s161 178 161 278s-27 278 -161 278zM462 996h69c4 -64 -36 -139 -108 -139c-55 0 -95 35 -132 35c-20 0 -30 -17 -31 -35
h-71c-5 63 38 139 106 139c56 0 94 -33 135 -33c20 0 29 15 32 33z" />
    <glyph glyph-name="Scaron" unicode="&#x160;" horiz-adv-x="617" 
d="M558 574l-141 -25c-15 54 -45 109 -108 109c-51 0 -95 -37 -95 -90c0 -153 366 -53 366 -343c0 -95 -72 -237 -264 -237c-148 0 -255 72 -279 224l156 23c14 -66 48 -115 122 -115c61 0 112 32 112 99c0 156 -366 66 -366 331c0 140 118 240 253 240
c132 0 231 -85 244 -216zM496 996l-122 -140h-136l-117 140h132l52 -63l56 63h135z" />
    <glyph glyph-name="Uacute" unicode="&#xda;" horiz-adv-x="647" 
d="M442 778h156v-538c0 -160 -110 -252 -274 -252s-274 92 -274 252v538h156v-488c0 -130 39 -170 118 -170s118 40 118 170v488zM254 856l59 140h136l-103 -140h-92z" />
    <glyph glyph-name="Ucircumflex" unicode="&#xdb;" horiz-adv-x="647" 
d="M442 778h156v-538c0 -160 -110 -252 -274 -252s-274 92 -274 252v538h156v-488c0 -130 39 -170 118 -170s118 40 118 170v488zM389 996l122 -140h-135l-56 63l-52 -63h-132l117 140h136z" />
    <glyph glyph-name="Udieresis" unicode="&#xdc;" horiz-adv-x="647" 
d="M442 778h156v-538c0 -160 -110 -252 -274 -252s-274 92 -274 252v538h156v-488c0 -130 39 -170 118 -170s118 40 118 170v488zM283 996v-148h-148v148h148zM512 996v-148h-148v148h148z" />
    <glyph glyph-name="Ugrave" unicode="&#xd9;" horiz-adv-x="647" 
d="M442 778h156v-538c0 -160 -110 -252 -274 -252s-274 92 -274 252v538h156v-488c0 -130 39 -170 118 -170s118 40 118 170v488zM335 996l59 -140h-92l-103 140h136z" />
    <glyph glyph-name="Yacute" unicode="&#xdd;" horiz-adv-x="653" 
d="M661 778l-258 -464v-314h-156v314l-255 464h166l168 -342l174 342h161zM257 856l59 140h136l-103 -140h-92z" />
    <glyph glyph-name="Ydieresis" unicode="&#x178;" horiz-adv-x="653" 
d="M661 778l-258 -464v-314h-156v314l-255 464h166l168 -342l174 342h161zM286 996v-148h-148v148h148zM515 996v-148h-148v148h148z" />
    <glyph glyph-name="Zcaron" unicode="&#x17d;" horiz-adv-x="569" 
d="M538 778v-126l-328 -520h328v-132h-507v122l328 524h-317v132h496zM472 996l-122 -140h-136l-117 140h132l52 -63l56 63h135z" />
    <glyph glyph-name="aacute" unicode="&#xe1;" horiz-adv-x="573" 
d="M390 0l-16 51c-55 -39 -88 -63 -159 -63c-97 0 -176 66 -176 166c0 158 208 190 327 203c10 78 -16 106 -71 106c-47 0 -81 -21 -89 -70l-142 22c33 119 113 157 230 157c151 0 220 -72 220 -177v-278c0 -40 2 -80 20 -117h-144zM366 170v86c-61 -11 -182 -17 -182 -99
c0 -33 16 -60 51 -60c61 0 103 36 131 73zM217 638l59 140h136l-103 -140h-92z" />
    <glyph glyph-name="acircumflex" unicode="&#xe2;" horiz-adv-x="573" 
d="M390 0l-16 51c-55 -39 -88 -63 -159 -63c-97 0 -176 66 -176 166c0 158 208 190 327 203c10 78 -16 106 -71 106c-47 0 -81 -21 -89 -70l-142 22c33 119 113 157 230 157c151 0 220 -72 220 -177v-278c0 -40 2 -80 20 -117h-144zM366 170v86c-61 -11 -182 -17 -182 -99
c0 -33 16 -60 51 -60c61 0 103 36 131 73zM352 778l122 -140h-135l-56 63l-52 -63h-132l117 140h136z" />
    <glyph glyph-name="adieresis" unicode="&#xe4;" horiz-adv-x="573" 
d="M390 0l-16 51c-55 -39 -88 -63 -159 -63c-97 0 -176 66 -176 166c0 158 208 190 327 203c10 78 -16 106 -71 106c-47 0 -81 -21 -89 -70l-142 22c33 119 113 157 230 157c151 0 220 -72 220 -177v-278c0 -40 2 -80 20 -117h-144zM366 170v86c-61 -11 -182 -17 -182 -99
c0 -33 16 -60 51 -60c61 0 103 36 131 73zM246 778v-148h-148v148h148zM475 778v-148h-148v148h148z" />
    <glyph glyph-name="agrave" unicode="&#xe0;" horiz-adv-x="573" 
d="M390 0l-16 51c-55 -39 -88 -63 -159 -63c-97 0 -176 66 -176 166c0 158 208 190 327 203c10 78 -16 106 -71 106c-47 0 -81 -21 -89 -70l-142 22c33 119 113 157 230 157c151 0 220 -72 220 -177v-278c0 -40 2 -80 20 -117h-144zM366 170v86c-61 -11 -182 -17 -182 -99
c0 -33 16 -60 51 -60c61 0 103 36 131 73zM298 778l59 -140h-92l-103 140h136z" />
    <glyph glyph-name="aring" unicode="&#xe5;" horiz-adv-x="573" 
d="M390 0l-16 51c-55 -39 -88 -63 -159 -63c-97 0 -176 66 -176 166c0 158 208 190 327 203c10 78 -16 106 -71 106c-47 0 -81 -21 -89 -70l-142 22c33 119 113 157 230 157c151 0 220 -72 220 -177v-278c0 -40 2 -80 20 -117h-144zM366 170v86c-61 -11 -182 -17 -182 -99
c0 -33 16 -60 51 -60c61 0 103 36 131 73zM170 705c0 64 52 117 116 117c65 0 117 -53 117 -117c0 -65 -52 -117 -117 -117c-64 0 -116 52 -116 117zM240 705c0 -26 21 -47 46 -47c26 0 47 21 47 47s-21 47 -47 47c-25 0 -46 -21 -46 -47z" />
    <glyph glyph-name="atilde" unicode="&#xe3;" horiz-adv-x="573" 
d="M390 0l-16 51c-55 -39 -88 -63 -159 -63c-97 0 -176 66 -176 166c0 158 208 190 327 203c10 78 -16 106 -71 106c-47 0 -81 -21 -89 -70l-142 22c33 119 113 157 230 157c151 0 220 -72 220 -177v-278c0 -40 2 -80 20 -117h-144zM366 170v86c-61 -11 -182 -17 -182 -99
c0 -33 16 -60 51 -60c61 0 103 36 131 73zM389 778h69c4 -64 -36 -139 -108 -139c-55 0 -95 35 -132 35c-20 0 -30 -17 -31 -35h-71c-5 63 38 139 106 139c56 0 94 -33 135 -33c20 0 29 15 32 33z" />
    <glyph glyph-name="ccedilla" unicode="&#xe7;" horiz-adv-x="558" 
d="M385 205l134 -24c-24 -117 -109 -193 -234 -193c-163 0 -246 144 -246 292c0 149 82 292 246 292c125 0 210 -76 234 -193l-134 -23c-11 53 -25 107 -100 107c-80 0 -94 -113 -94 -183s14 -183 94 -183c75 0 89 54 100 108zM353 -65l-68 -167h-79l25 167h122z" />
    <glyph glyph-name="eacute" unicode="&#xe9;" horiz-adv-x="569" 
d="M193 338h192c0 63 -25 125 -96 125c-67 0 -94 -65 -96 -125zM530 245h-342c-5 -68 36 -148 112 -148c53 0 82 43 93 90l137 -25c-32 -111 -139 -174 -245 -174c-163 0 -246 144 -246 292c0 149 82 292 246 292c141 0 249 -67 245 -327zM215 638l59 140h136l-103 -140h-92
z" />
    <glyph glyph-name="ecircumflex" unicode="&#xea;" horiz-adv-x="569" 
d="M193 338h192c0 63 -25 125 -96 125c-67 0 -94 -65 -96 -125zM530 245h-342c-5 -68 36 -148 112 -148c53 0 82 43 93 90l137 -25c-32 -111 -139 -174 -245 -174c-163 0 -246 144 -246 292c0 149 82 292 246 292c141 0 249 -67 245 -327zM350 778l122 -140h-135l-56 63
l-52 -63h-132l117 140h136z" />
    <glyph glyph-name="edieresis" unicode="&#xeb;" horiz-adv-x="569" 
d="M193 338h192c0 63 -25 125 -96 125c-67 0 -94 -65 -96 -125zM530 245h-342c-5 -68 36 -148 112 -148c53 0 82 43 93 90l137 -25c-32 -111 -139 -174 -245 -174c-163 0 -246 144 -246 292c0 149 82 292 246 292c141 0 249 -67 245 -327zM244 778v-148h-148v148h148z
M473 778v-148h-148v148h148z" />
    <glyph glyph-name="egrave" unicode="&#xe8;" horiz-adv-x="569" 
d="M193 338h192c0 63 -25 125 -96 125c-67 0 -94 -65 -96 -125zM530 245h-342c-5 -68 36 -148 112 -148c53 0 82 43 93 90l137 -25c-32 -111 -139 -174 -245 -174c-163 0 -246 144 -246 292c0 149 82 292 246 292c141 0 249 -67 245 -327zM296 778l59 -140h-92l-103 140h136
z" />
    <glyph glyph-name="iacute" unicode="&#xed;" horiz-adv-x="257" 
d="M203 560v-560h-148v560h148zM59 638l59 140h136l-103 -140h-92z" />
    <glyph glyph-name="icircumflex" unicode="&#xee;" horiz-adv-x="257" 
d="M203 560v-560h-148v560h148zM194 778l122 -140h-135l-56 63l-52 -63h-132l117 140h136z" />
    <glyph glyph-name="idieresis" unicode="&#xef;" horiz-adv-x="257" 
d="M203 560v-560h-148v560h148zM88 778v-148h-148v148h148zM317 778v-148h-148v148h148z" />
    <glyph glyph-name="igrave" unicode="&#xec;" horiz-adv-x="257" 
d="M203 560v-560h-148v560h148zM140 778l59 -140h-92l-103 140h136z" />
    <glyph glyph-name="ntilde" unicode="&#xf1;" horiz-adv-x="566" 
d="M200 560v-58c47 39 105 70 167 70c61 0 147 -37 147 -175v-397h-148v337c0 45 3 116 -61 116c-43 0 -77 -31 -105 -61v-392h-148v560h148zM385 778h69c4 -64 -36 -139 -108 -139c-55 0 -95 35 -132 35c-20 0 -30 -17 -31 -35h-71c-5 63 38 139 106 139
c56 0 94 -33 135 -33c20 0 29 15 32 33z" />
    <glyph glyph-name="oacute" unicode="&#xf3;" horiz-adv-x="570" 
d="M285 -12c-163 0 -246 144 -246 292c0 149 82 292 246 292s246 -143 246 -292c0 -148 -83 -292 -246 -292zM285 97c80 0 94 113 94 183s-14 183 -94 183s-94 -113 -94 -183s14 -183 94 -183zM215 638l59 140h136l-103 -140h-92z" />
    <glyph glyph-name="ocircumflex" unicode="&#xf4;" horiz-adv-x="570" 
d="M285 -12c-163 0 -246 144 -246 292c0 149 82 292 246 292s246 -143 246 -292c0 -148 -83 -292 -246 -292zM285 97c80 0 94 113 94 183s-14 183 -94 183s-94 -113 -94 -183s14 -183 94 -183zM351 778l122 -140h-135l-56 63l-52 -63h-132l117 140h136z" />
    <glyph glyph-name="odieresis" unicode="&#xf6;" horiz-adv-x="570" 
d="M285 -12c-163 0 -246 144 -246 292c0 149 82 292 246 292s246 -143 246 -292c0 -148 -83 -292 -246 -292zM285 97c80 0 94 113 94 183s-14 183 -94 183s-94 -113 -94 -183s14 -183 94 -183zM245 778v-148h-148v148h148zM474 778v-148h-148v148h148z" />
    <glyph glyph-name="ograve" unicode="&#xf2;" horiz-adv-x="570" 
d="M285 -12c-163 0 -246 144 -246 292c0 149 82 292 246 292s246 -143 246 -292c0 -148 -83 -292 -246 -292zM285 97c80 0 94 113 94 183s-14 183 -94 183s-94 -113 -94 -183s14 -183 94 -183zM296 778l59 -140h-92l-103 140h136z" />
    <glyph glyph-name="otilde" unicode="&#xf5;" horiz-adv-x="570" 
d="M285 -12c-163 0 -246 144 -246 292c0 149 82 292 246 292s246 -143 246 -292c0 -148 -83 -292 -246 -292zM285 97c80 0 94 113 94 183s-14 183 -94 183s-94 -113 -94 -183s14 -183 94 -183zM387 778h69c4 -64 -36 -139 -108 -139c-55 0 -95 35 -132 35
c-20 0 -30 -17 -31 -35h-71c-5 63 38 139 106 139c56 0 94 -33 135 -33c20 0 29 15 32 33z" />
    <glyph glyph-name="scaron" unicode="&#x161;" horiz-adv-x="487" 
d="M449 413l-140 -17c-7 39 -20 67 -64 67c-35 0 -60 -26 -60 -62c0 -96 271 -26 271 -236c0 -119 -99 -177 -213 -177c-115 0 -188 56 -203 172l139 15c3 -40 24 -78 69 -78c37 0 72 17 72 60c0 98 -271 18 -271 236c0 113 97 179 206 179c98 0 177 -62 194 -159zM431 778
l-122 -140h-136l-117 140h132l52 -63l56 63h135z" />
    <glyph glyph-name="uacute" unicode="&#xfa;" horiz-adv-x="566" 
d="M366 0v58c-47 -39 -105 -70 -167 -70c-61 0 -147 37 -147 175v397h148v-337c0 -45 -3 -116 61 -116c43 0 77 31 105 61v392h148v-560h-148zM213 638l59 140h136l-103 -140h-92z" />
    <glyph glyph-name="ucircumflex" unicode="&#xfb;" horiz-adv-x="566" 
d="M366 0v58c-47 -39 -105 -70 -167 -70c-61 0 -147 37 -147 175v397h148v-337c0 -45 -3 -116 61 -116c43 0 77 31 105 61v392h148v-560h-148zM349 778l122 -140h-135l-56 63l-52 -63h-132l117 140h136z" />
    <glyph glyph-name="udieresis" unicode="&#xfc;" horiz-adv-x="566" 
d="M366 0v58c-47 -39 -105 -70 -167 -70c-61 0 -147 37 -147 175v397h148v-337c0 -45 -3 -116 61 -116c43 0 77 31 105 61v392h148v-560h-148zM243 778v-148h-148v148h148zM472 778v-148h-148v148h148z" />
    <glyph glyph-name="ugrave" unicode="&#xf9;" horiz-adv-x="566" 
d="M366 0v58c-47 -39 -105 -70 -167 -70c-61 0 -147 37 -147 175v397h148v-337c0 -45 -3 -116 61 -116c43 0 77 31 105 61v392h148v-560h-148zM294 778l59 -140h-92l-103 140h136z" />
    <glyph glyph-name="yacute" unicode="&#xfd;" horiz-adv-x="528" 
d="M528 560l-216 -605c-36 -102 -72 -161 -190 -161c-32 0 -64 4 -95 11v127c22 -8 40 -14 64 -14c67 0 91 38 109 96l-200 546h160l113 -369l103 369h152zM194 638l59 140h136l-103 -140h-92z" />
    <glyph glyph-name="ydieresis" unicode="&#xff;" horiz-adv-x="528" 
d="M528 560l-216 -605c-36 -102 -72 -161 -190 -161c-32 0 -64 4 -95 11v127c22 -8 40 -14 64 -14c67 0 91 38 109 96l-200 546h160l113 -369l103 369h152zM224 778v-148h-148v148h148zM453 778v-148h-148v148h148z" />
    <glyph glyph-name="zcaron" unicode="&#x17e;" horiz-adv-x="524" 
d="M485 560v-105l-261 -338h261v-117h-446v100l257 343h-240v117h429zM450 778l-122 -140h-136l-117 140h132l52 -63l56 63h135z" />
    <glyph glyph-name="Delta" unicode="&#x2206;" horiz-adv-x="730" 
d="M30 0v79l258 711h160l251 -709v-81h-669zM169 109h385l-126 336c-17 59 -51 151 -64 199h-4c-9 -39 -40 -122 -58 -182z" />
    <glyph glyph-name="Omega" unicode="&#x2126;" horiz-adv-x="790" 
d="M196 109v3c-69 64 -137 172 -137 315c0 197 138 358 339 358c214 0 331 -184 331 -351c0 -146 -69 -259 -139 -322v-3h155v-109h-292v81c72 46 139 148 139 324c0 138 -67 268 -195 268c-122 0 -201 -116 -201 -273c0 -160 66 -276 139 -319v-81h-292v109h153z" />
    <glyph glyph-name="pi" unicode="&#x3c0;" horiz-adv-x="666" 
d="M639 466h-80v-301c0 -83 7 -131 15 -165h-131c-13 23 -19 78 -19 158v308h-159c-5 -123 -33 -353 -72 -466h-132c39 128 69 341 71 466c-55 0 -87 -4 -111 -12l-16 90c29 21 86 36 180 36h465z" />
    <glyph glyph-name="Euro" unicode="&#x20ac;" 
d="M573 750v-135c-25 24 -75 48 -153 48c-97 0 -150 -48 -165 -137h283l-36 -103h-261c-1 -9 -1 -19 -1 -30c0 -13 0 -27 1 -36h237l-36 -103h-187c15 -93 71 -140 167 -140c74 0 124 23 151 47v-136c-21 -16 -80 -36 -173 -36c-155 0 -259 81 -289 265h-91l36 103h44
c-1 9 -1 21 -1 35c0 12 0 22 1 31h-80l36 103h54c28 160 117 263 290 263c83 0 148 -23 173 -39z" />
    <glyph glyph-name="estimated" unicode="&#x212e;" horiz-adv-x="967" 
d="M928 378h-721c-3 0 -6 -1 -6 -5v-218c0 -10 4 -18 10 -25c70 -73 166 -119 273 -119c115 0 217 52 287 133h64c-80 -94 -209 -155 -353 -155c-245 0 -445 179 -445 400s200 400 445 400c247 0 446 -179 446 -400v-11zM765 406v220c0 9 -4 19 -11 26
c-70 69 -165 114 -270 114c-106 0 -202 -46 -272 -118c-7 -7 -11 -16 -11 -27v-215c0 -2 3 -7 6 -7h553c4 0 5 5 5 7z" />
    <glyph glyph-name="partialdiff" unicode="&#x2202;" horiz-adv-x="636" 
d="M115 710l-39 100c34 26 99 64 202 64c161 0 304 -142 304 -422c0 -272 -113 -459 -310 -459c-156 0 -230 142 -230 262c0 177 108 288 240 288c93 0 150 -62 167 -90h1c1 9 1 28 1 38c0 146 -77 272 -190 272c-69 0 -117 -29 -146 -53zM285 105h1c86 0 139 124 151 234
c-11 37 -57 97 -128 97c-78 0 -134 -87 -134 -186c0 -81 43 -145 110 -145z" />
    <glyph glyph-name="product" unicode="&#x220f;" horiz-adv-x="800" 
d="M771 651h-114v-758h-133v758h-249v-758h-133v758h-115v122h744v-122z" />
    <glyph glyph-name="summation" unicode="&#x2211;" horiz-adv-x="620" 
d="M599 -107h-573v86l272 354l-262 346v94h545v-114h-364v-4l232 -300l-257 -334v-4h407v-124z" />
    <glyph glyph-name="uni2219" unicode="&#x2219;" horiz-adv-x="311" 
d="M230 321v-148h-148v148h148z" />
    <glyph glyph-name="radical" unicode="&#x221a;" horiz-adv-x="657" 
d="M665 926l-249 -1082h-109l-167 487l-82 -32l-23 75l185 75l119 -360c8 -34 17 -69 22 -93l2 -1c4 24 9 62 17 100l191 831h94z" />
    <glyph glyph-name="infinity" unicode="&#x221e;" horiz-adv-x="864" 
d="M809 320v-1c0 -119 -86 -190 -177 -190c-65 0 -125 30 -199 126c-58 -70 -116 -126 -206 -126c-91 0 -174 75 -174 185s79 188 183 188c83 0 143 -51 201 -124c48 54 103 125 202 124c97 0 170 -73 170 -182zM237 203h1c63 0 111 57 154 107c-46 61 -87 120 -160 120
c-64 0 -102 -51 -102 -117c0 -61 45 -110 107 -110zM631 430h-1c-68 0 -120 -72 -155 -112c67 -84 104 -115 160 -115c63 0 98 60 98 110c0 69 -41 117 -102 117z" />
    <glyph glyph-name="integral" unicode="&#x222b;" horiz-adv-x="434" 
d="M411 941l-15 -92c-11 5 -25 10 -40 10c-21 0 -42 -8 -55 -28c-25 -31 -32 -93 -32 -187c0 -180 17 -338 17 -534c0 -107 -17 -179 -42 -222c-29 -56 -85 -78 -139 -78c-34 0 -68 10 -84 18l17 96c11 -5 28 -12 49 -12c18 0 37 6 49 22c20 27 31 74 31 175
c0 199 -16 360 -16 547c0 128 18 199 66 249c31 34 80 49 126 49c28 0 55 -7 68 -13z" />
    <glyph glyph-name="approxequal" unicode="&#x2248;" horiz-adv-x="613" 
d="M520 498l48 -44c-34 -66 -86 -114 -149 -114c-45 0 -75 15 -126 45c-33 20 -60 37 -97 37c-49 0 -77 -40 -104 -80l-49 44c33 65 92 113 160 113c54 0 90 -25 119 -42c40 -23 63 -39 97 -39c43 0 71 31 101 80zM520 293l48 -45c-34 -64 -85 -112 -150 -112
c-45 0 -76 15 -125 44c-34 21 -61 38 -96 38c-51 0 -78 -40 -105 -81l-49 44c33 65 93 113 160 113c54 0 90 -25 118 -41c36 -20 62 -40 98 -40c44 0 70 31 101 80z" />
    <glyph glyph-name="notequal" unicode="&#x2260;" horiz-adv-x="613" 
d="M449 567l-44 -99h154v-79h-184l-67 -151h251v-78h-281l-56 -127l-61 26l45 101h-152v78h182l66 151h-248v79h278l55 124z" />
    <glyph glyph-name="lessequal" unicode="&#x2264;" horiz-adv-x="613" 
d="M556 110l-496 247v85l496 247v-92l-418 -196v-2l418 -198v-91zM560 -12h-505v80h505v-80z" />
    <glyph glyph-name="greaterequal" unicode="&#x2265;" horiz-adv-x="613" 
d="M61 689l497 -248v-84l-496 -247v91l417 197v3l-418 196v92zM558 -12h-502v80h502v-80z" />
    <glyph glyph-name="lozenge" unicode="&#x25ca;" horiz-adv-x="656" 
d="M600 386l-221 -440h-107l-216 440l221 440h107zM482 383l-131 269c-8 20 -17 47 -21 65h-3c-5 -20 -13 -43 -22 -65l-131 -263l132 -274c8 -22 16 -47 19 -62h5c4 16 13 48 19 60z" />
    <glyph glyph-name="uni02C9" unicode="&#x2c9;" horiz-adv-x="576" 
d="M498 778v-105h-420v105h420z" />
    <glyph glyph-name="uni00AD" unicode="&#xad;" horiz-adv-x="341" 
d="M39 358h263v-124h-263v124z" />
    <glyph glyph-name="uni03A9" unicode="&#x3a9;" horiz-adv-x="790" 
d="M196 109v3c-69 64 -137 172 -137 315c0 197 138 358 339 358c214 0 331 -184 331 -351c0 -146 -69 -259 -139 -322v-3h155v-109h-292v81c72 46 139 148 139 324c0 138 -67 268 -195 268c-122 0 -201 -116 -201 -273c0 -160 66 -276 139 -319v-81h-292v109h153z" />
    <glyph glyph-name="uni00A0" unicode="&#xa0;" horiz-adv-x="311" 
 />
    <glyph glyph-name="afii61289" unicode="&#x2113;" horiz-adv-x="568" 
d="M492 202l55 -57c-57 -111 -141 -153 -229 -153c-132 0 -187 85 -198 184c0 4 0 8 -1 12c-18 -13 -38 -30 -58 -45l-34 72c32 27 63 50 91 76v281c0 198 90 280 196 280s154 -87 154 -195c0 -132 -86 -256 -221 -386l1 -45c2 -85 46 -126 101 -126c61 0 112 52 143 102z
M247 576v-182c79 89 135 185 135 267c0 59 -16 95 -62 95c-34 0 -73 -40 -73 -180z" />
    <glyph glyph-name="uni03BC" unicode="&#x3bc;" horiz-adv-x="566" 
d="M366 0v58c-48 -39 -112 -70 -166 -70v-179h-148v751h148v-337c0 -45 -3 -116 61 -116c43 0 77 31 105 61v392h148v-560h-148z" />
    <glyph glyph-name="uni2215" unicode="&#x2215;" horiz-adv-x="177" 
d="M239 778h94l-394 -778h-94z" />
    </font>
</defs>
</svg>
